<svg xmlns="http://www.w3.org/2000/svg" width="2400" height="1350" viewBox="0 0 2400 1350" role="img" aria-label="Sleek white medical wing with blue glow">
  <defs>
    <linearGradient id="g0" x1="0" y1="0" x2="1" y2="1">
      <stop offset="0" stop-color="#05070c"/>
      <stop offset="1" stop-color="#0b1020"/>
    </linearGradient>
    <radialGradient id="goldGlow" cx="30%" cy="24%" r="70%">
      <stop offset="0" stop-color="rgba(212,175,55,.26)"/>
      <stop offset="0.55" stop-color="rgba(212,175,55,.08)"/>
      <stop offset="1" stop-color="rgba(212,175,55,0)"/>
    </radialGradient>
    <radialGradient id="blueGlow" cx="80%" cy="18%" r="70%">
      <stop offset="0" stop-color="rgba(120,220,255,.10)"/>
      <stop offset="1" stop-color="rgba(120,180,255,0)"/>
    </radialGradient>
    <filter id="blur" x="-20%" y="-20%" width="140%" height="140%">
      <feGaussianBlur stdDeviation="8"/>
    </filter>
  </defs>

  <rect width="2400" height="1350" fill="url(#g0)"/>
  <rect width="2400" height="1350" fill="url(#goldGlow)"/>
  <rect width="2400" height="1350" fill="url(#blueGlow)"/>

  <g opacity="0.8"><path d="M 575.1 1320.3 Q 1109.5 886.5 1190.1 381.6" stroke="rgba(243,210,122,0.107)" stroke-width="1.31" fill="none"/><path d="M -36.0 94.2 Q -47.4 139.3 104.6 -59.5" stroke="rgba(243,210,122,0.134)" stroke-width="1.47" fill="none"/><path d="M 469.1 1048.0 Q 953.7 829.7 1688.5 938.3" stroke="rgba(243,210,122,0.061)" stroke-width="2.15" fill="none"/><path d="M 1684.6 550.4 Q 1165.8 621.4 615.4 940.4" stroke="rgba(243,210,122,0.071)" stroke-width="1.45" fill="none"/><path d="M 469.8 997.6 Q 1295.0 1097.7 2101.2 1072.3" stroke="rgba(243,210,122,0.118)" stroke-width="1.28" fill="none"/><path d="M 1838.0 357.4 Q 803.0 139.5 190.3 324.0" stroke="rgba(243,210,122,0.086)" stroke-width="1.95" fill="none"/><path d="M 1681.1 813.4 Q 1321.1 501.5 252.3 471.7" stroke="rgba(243,210,122,0.066)" stroke-width="1.43" fill="none"/><path d="M 1487.9 462.6 Q 1709.8 390.7 1376.4 327.3" stroke="rgba(243,210,122,0.106)" stroke-width="1.97" fill="none"/><path d="M 349.2 1092.5 Q 1188.5 1189.2 1851.2 995.4" stroke="rgba(243,210,122,0.115)" stroke-width="1.23" fill="none"/><path d="M 1689.2 345.9 Q 1626.1 724.6 874.5 699.6" stroke="rgba(243,210,122,0.065)" stroke-width="1.82" fill="none"/><path d="M 1317.5 1395.0 Q 2163.8 1223.3 2506.2 1443.1" stroke="rgba(243,210,122,0.093)" stroke-width="1.02" fill="none"/><path d="M 1628.3 72.1 Q 1411.9 608.9 1087.2 762.3" stroke="rgba(243,210,122,0.078)" stroke-width="1.60" fill="none"/><path d="M 1522.7 534.2 Q 1867.2 206.8 2108.0 122.2" stroke="rgba(243,210,122,0.117)" stroke-width="1.65" fill="none"/><path d="M 1124.5 616.2 Q 918.8 976.7 527.6 1302.8" stroke="rgba(243,210,122,0.100)" stroke-width="2.03" fill="none"/></g>
  <g><circle cx="704.9" cy="919.2" r="3.7" fill="rgba(212,175,55,0.107)"/><circle cx="1529.4" cy="54.8" r="2.7" fill="rgba(212,175,55,0.122)"/><circle cx="9.1" cy="26.5" r="5.9" fill="rgba(212,175,55,0.070)"/><circle cx="623.7" cy="675.6" r="3.4" fill="rgba(212,175,55,0.094)"/><circle cx="1151.7" cy="990.3" r="4.5" fill="rgba(212,175,55,0.128)"/><circle cx="29.7" cy="825.7" r="5.8" fill="rgba(212,175,55,0.089)"/><circle cx="1558.6" cy="152.8" r="2.2" fill="rgba(212,175,55,0.100)"/><circle cx="1206.9" cy="715.4" r="2.2" fill="rgba(212,175,55,0.071)"/><circle cx="106.5" cy="1252.0" r="2.6" fill="rgba(212,175,55,0.095)"/><circle cx="2234.2" cy="221.1" r="5.4" fill="rgba(212,175,55,0.116)"/><circle cx="72.6" cy="831.4" r="4.4" fill="rgba(212,175,55,0.094)"/><circle cx="885.6" cy="1332.6" r="4.1" fill="rgba(212,175,55,0.140)"/><circle cx="179.4" cy="305.6" r="5.0" fill="rgba(212,175,55,0.089)"/><circle cx="1872.3" cy="109.7" r="3.8" fill="rgba(212,175,55,0.066)"/><circle cx="1726.0" cy="404.7" r="5.7" fill="rgba(212,175,55,0.089)"/><circle cx="351.1" cy="183.1" r="2.2" fill="rgba(212,175,55,0.100)"/><circle cx="1230.7" cy="889.1" r="2.1" fill="rgba(212,175,55,0.053)"/><circle cx="371.2" cy="535.6" r="4.1" fill="rgba(212,175,55,0.071)"/><circle cx="2277.8" cy="1147.9" r="3.0" fill="rgba(212,175,55,0.138)"/><circle cx="2214.6" cy="838.2" r="5.6" fill="rgba(212,175,55,0.091)"/><circle cx="728.6" cy="1013.9" r="3.7" fill="rgba(212,175,55,0.050)"/><circle cx="1629.9" cy="108.1" r="5.2" fill="rgba(212,175,55,0.101)"/><circle cx="264.8" cy="1245.2" r="5.6" fill="rgba(212,175,55,0.124)"/><circle cx="173.9" cy="1096.3" r="4.2" fill="rgba(212,175,55,0.113)"/><circle cx="1205.7" cy="947.3" r="4.7" fill="rgba(212,175,55,0.083)"/><circle cx="1019.7" cy="997.4" r="3.8" fill="rgba(212,175,55,0.140)"/><circle cx="1192.4" cy="427.5" r="2.5" fill="rgba(212,175,55,0.052)"/><circle cx="1548.6" cy="809.7" r="4.7" fill="rgba(212,175,55,0.067)"/><circle cx="49.7" cy="0.2" r="3.3" fill="rgba(212,175,55,0.065)"/><circle cx="762.7" cy="736.3" r="3.4" fill="rgba(212,175,55,0.065)"/><circle cx="1293.2" cy="457.7" r="5.3" fill="rgba(212,175,55,0.120)"/><circle cx="1912.2" cy="1315.7" r="2.4" fill="rgba(212,175,55,0.052)"/><circle cx="2067.0" cy="144.7" r="2.6" fill="rgba(212,175,55,0.080)"/><circle cx="2183.2" cy="813.4" r="5.5" fill="rgba(212,175,55,0.057)"/><circle cx="228.4" cy="213.2" r="5.6" fill="rgba(212,175,55,0.091)"/><circle cx="2030.5" cy="940.5" r="4.3" fill="rgba(212,175,55,0.093)"/><circle cx="2200.4" cy="107.9" r="5.3" fill="rgba(212,175,55,0.086)"/><circle cx="1719.3" cy="345.6" r="3.0" fill="rgba(212,175,55,0.097)"/></g>

  <g filter="url(#blur)" opacity="0.9">
    <circle cx="1752.0" cy="621.0" r="210" fill="rgba(255,255,255,.04)"/>
  </g>

  <g><circle cx="1752.0" cy="621.0" r="160" fill="none" stroke="rgba(212,175,55,0.180)" stroke-width="1.2"/><circle cx="1752.0" cy="621.0" r="215" fill="none" stroke="rgba(212,175,55,0.150)" stroke-width="1.2"/><circle cx="1752.0" cy="621.0" r="270" fill="none" stroke="rgba(212,175,55,0.120)" stroke-width="1.2"/><circle cx="1752.0" cy="621.0" r="325" fill="none" stroke="rgba(212,175,55,0.090)" stroke-width="1.2"/></g>

  <g>
    <rect x="1562.0" y="555.0" width="380" height="132" rx="26" fill="rgba(255,255,255,.05)" stroke="rgba(255,255,255,.10)"/>
    <text x="1752.0" y="613.0" text-anchor="middle" font-family="ui-sans-serif,system-ui" font-size="50" fill="rgba(245,247,255,.92)" letter-spacing="2">W3</text>
    <text x="1752.0" y="655.0" text-anchor="middle" font-family="ui-sans-serif,system-ui" font-size="22" fill="rgba(245,247,255,.60)" letter-spacing="1">w3.hospital</text>
  </g>

  <g opacity="0.9">
    <circle cx="432.0" cy="1053.0" r="280" fill="rgba(212,175,55,.06)"/>
    <circle cx="432.0" cy="1053.0" r="279" fill="none" stroke="rgba(255,255,255,.06)"/>
  </g>
</svg>